<svg height="402" width="402" xmlns="http://www.w3.org/2000/svg">
  <path d="m255 200v1.6l-.1 1.6-.2 1.6-.2 1.6-.2 1.6-.3 1.5-.4 1.6-.4 1.5-.5 1.5-.6 1.5-.6 1.5-.6 1.5-.7 1.4-.7 1.4-.8 1.4-.9 1.3-.9 1.3-.9 1.3-1 1.2-1 1.2-1.1 1.1-1.1 1.1-1.1 1.1-1.2 1-1.2 1-1.3.9-1.2.9-1.3.8-1.4.8-1.3.7-1.4.7-1.4.6-1.4.6-1.4.5-1.5.4-1.4.4-1.5.4-1.4.3-1.5.2-1.5.2-1.5.1h-1.5-1.4-1.5l-1.4-.1-1.5-.2-1.4-.2-1.4-.3-1.4-.3-1.4-.4-1.4-.4-1.3-.5-1.3-.5-1.3-.6-1.2-.6-1.3-.7-1.2-.7-1.1-.8-1.1-.8-1.1-.9-1-.9-1-.9-1-.9-.9-1-.9-1.1-.8-1-.8-1.1-.7-1.1-.7-1.1-.6-1.2-.6-1.2-.5-1.2-.4-1.2-.5-1.2-.3-1.2-.3-1.3-.3-1.2-.2-1.3-.1-1.2-.1-1.3v-1.3-1.2l.1-1.3.1-1.2.2-1.2.2-1.2.3-1.2.3-1.2.4-1.2.4-1.1.5-1.1.6-1.1.5-1.1.7-1 .6-1 .8-1 .7-1 .8-.9.9-.8.8-.9.9-.7 1-.8 1-.7 1-.6 1-.7 1.1-.5 1-.5 1.1-.5 1.2-.4 1.1-.4 1.2-.3 1.2-.3 1.1-.2 1.2-.1 1.2-.1 1.3-.1h1.2l1.2.1 1.2.1 1.2.2 1.2.2 1.2.3 1.2.3 1.2.4 1.1.4 1.2.5 1.1.5 1.1.6 1.1.7 1 .7 1.1.7 1 .8 1 .8.9.9.9.9.9.9.8 1 .8 1 .7 1.1.7 1.1.7 1.2.6 1.1.6 1.2.5 1.2.5 1.3.4 1.3.4 1.3.3 1.3.3 1.3.2 1.4.2 1.3.1 1.4.1 1.4v1.4l-.1 1.4-.1 1.4-.2 1.4-.2 1.4-.3 1.4-.3 1.4-.4 1.4-.5 1.3-.5 1.4-.5 1.3-.6 1.3-.7 1.3-.7 1.3-.8 1.3-.8 1.2-.8 1.2-1 1.2-.9 1.1-1 1.2-1.1 1-1.1 1.1-1.1 1-1.2.9-1.2 1-1.3.8-1.3.9-1.3.7-1.3.8-1.4.7-1.4.6-1.5.6-1.4.5-1.5.5-1.5.4-1.5.4-1.6.3-1.5.3-1.6.2-1.6.1-1.5.1h-1.6-1.6l-1.6-.1-1.6-.1-1.5-.2-1.6-.3-1.6-.3-1.5-.4-1.6-.4-1.5-.5-1.5-.5-1.5-.6-1.4-.7-1.5-.7-1.4-.7-1.4-.8-1.3-.9-1.3-.9-1.3-.9-1.3-1-1.2-1.1-1.2-1-1.1-1.2-1.1-1.1-1.1-1.2-1-1.3-.9-1.2-.9-1.3-.9-1.4-.8-1.3-.8-1.4-.7-1.4-.6-1.5-.6-1.4-.6-1.5-.4-1.5-.5-1.5-.4-1.5-.3-1.5-.2-1.6-.2-1.5-.2-1.5-.1-1.6v-1.5-1.6l.1-1.5.1-1.5.2-1.5.3-1.5.3-1.5.3-1.5.4-1.4.5-1.4.5-1.4.6-1.4.6-1.4.7-1.3.7-1.3.7-1.2.9-1.3.8-1.1.9-1.2.9-1.1 1-1.1 1-1 1-1 1.1-.9 1.1-.9 1.1-.8 1.2-.8 1.2-.8 1.2-.6 1.2-.7 1.3-.6 1.2-.5 1.3-.5 1.3-.4 1.3-.4 1.3-.3 1.3-.3 1.4-.2 1.3-.1 1.3-.1 1.3-.1 1.4.1h1.3l1.3.2 1.2.1 1.3.3 1.3.2 1.2.4 1.2.4 1.2.4 1.2.5 1.2.5 1.1.6 1.1.6 1 .7 1 .7 1 .7 1 .8.9.9.9.8.8.9.8 1 .7.9.7 1 .7 1.1.6 1 .6 1.1.5 1.1.4 1.1.4 1.1.4 1.2.3 1.2.2 1.1.2 1.2.2 1.2.1 1.2v1.2 1.2l-.1 1.2-.1 1.2-.2 1.2-.2 1.2-.3 1.1-.4 1.2-.3 1.1-.5 1.2-.5 1.1-.5 1-.6 1.1-.7 1-.6 1-.8 1-.7 1-.9.9-.8.9-.9.8-1 .8-.9.8-1.1.7-1 .7-1.1.6-1.1.6-1.1.6-1.2.5-1.2.4-1.2.4-1.2.4-1.3.3-1.2.2-1.3.2-1.3.1-1.3.1-1.3.1-1.4-.1h-1.3l-1.3-.2-1.3-.2-1.4-.2-1.3-.3-1.3-.4-1.3-.4-1.3-.4-1.2-.6-1.3-.5-1.2-.6-1.2-.7-1.2-.7-1.2-.8-1.1-.8-1.2-.9-1-.9-1.1-1-1-1-1-1.1-.9-1.1-.9-1.1-.9-1.2-.8-1.2-.8-1.2-.7-1.3-.7-1.3-.6-1.3-.6-1.4-.5-1.4-.5-1.4-.4-1.5-.4-1.4-.3-1.5-.3-1.5-.2-1.5-.2-1.5-.1-1.5v-1.6-1.5l.1-1.6.1-1.5.2-1.5.2-1.6.3-1.5.4-1.5.4-1.5.5-1.5.5-1.5.6-1.5.6-1.4.7-1.4.8-1.4.8-1.4.8-1.3.9-1.4.9-1.2 1-1.3 1.1-1.2 1-1.2 1.2-1.1 1.1-1.1 1.2-1.1 1.3-1 1.2-.9 1.3-.9 1.4-.9 1.4-.8 1.4-.8 1.4-.7 1.5-.7 1.4-.6 1.5-.5 1.5-.5 1.6-.5 1.5-.4 1.6-.3 1.6-.3 1.5-.2 1.6-.2 1.6-.1h1.6 1.6l1.5.1 1.6.1 1.6.2 1.5.2 1.6.3 1.5.4 1.5.4 1.5.4 1.5.5 1.4.6 1.4.6 1.4.7 1.4.7 1.3.8 1.3.8 1.3.9 1.2.9 1.2.9 1.2 1 1.1 1 1 1.1 1.1 1.1.9 1.1 1 1.2.8 1.2.9 1.2.8 1.3.7 1.2.7 1.3.6 1.4.6 1.3.5 1.3.5 1.4.4 1.4.3 1.4.3 1.4.3 1.4.1 1.4.2 1.4v1.4l.1 1.4-.1 1.3-.1 1.4-.1 1.4-.2 1.4-.3 1.3-.3 1.3-.3 1.3-.5 1.3-.4 1.3-.5 1.2-.6 1.2-.6 1.2-.6 1.1-.7 1.1-.8 1.1-.7 1.1-.9 1-.8.9-.9 1-.9.8-1 .9-1 .8-1 .7-1.1.7-1 .7-1.1.6-1.2.5-1.1.5-1.2.5-1.1.4-1.2.3-1.2.3-1.2.3-1.2.1-1.2.2-1.2.1h-1.3l-1.2-.1h-1.2l-1.2-.2-1.2-.2-1.1-.2-1.2-.3-1.2-.4-1.1-.4-1.1-.4-1.1-.5-1.1-.6-1-.6-1-.6-1-.7-1-.7-.9-.8-.9-.8-.8-.9-.8-.8-.8-1-.7-.9-.7-1-.7-1.1-.6-1-.5-1.1-.5-1.1-.5-1.2-.4-1.1-.3-1.2-.3-1.2-.3-1.2-.2-1.2-.1-1.3-.1-1.2v-1.2-1.3-1.3l.2-1.2.2-1.3.2-1.2.3-1.3.3-1.2.4-1.2.5-1.3.5-1.2.5-1.1.6-1.2.7-1.1.7-1.2.8-1 .8-1.1.8-1 .9-1.1 1-.9.9-1 1.1-.9 1-.8 1.1-.8 1.2-.8 1.2-.7 1.2-.7 1.2-.7 1.3-.6 1.3-.5 1.3-.5 1.4-.5 1.3-.4 1.4-.3 1.4-.3 1.5-.3 1.4-.1 1.4-.2h1.5l1.5-.1 1.5.1 1.4.1 1.5.1 1.5.2 1.5.3 1.4.3 1.5.4 1.4.5 1.5.4 1.4.6 1.4.6 1.4.6 1.3.8 1.3.7 1.4.8 1.2.9 1.3.9 1.2 1 1.2 1 1.2 1 1.1 1.1 1.1 1.1 1 1.2 1 1.2.9 1.3.9 1.3.9 1.3.8 1.4.8 1.4.7 1.4.6 1.4.7 1.5.5 1.5.5 1.5.5 1.5.3 1.6.4 1.5.3 1.6.2 1.6.1 1.6.1 1.6.1 1.6v1.6l-.1 1.6" fill="none" stroke="#fc3"/>
</svg>
