<svg xmlns="http://www.w3.org/2000/svg" version="1.0" width="402" height="402">
<g id="spiro"><path id="idspiro" d="M255,200 L255,201.6 L254.9,203.2 L254.7,204.8 L254.5,206.4 L254.3,208 L254,209.5 L253.6,211.1 L253.2,212.6 L252.7,214.1 L252.1,215.6 L251.5,217.1 L250.9,218.6 L250.2,220 L249.5,221.4 L248.7,222.8 L247.8,224.1 L246.9,225.4 L246,226.7 L245,227.9 L244,229.1 L242.9,230.2 L241.8,231.3 L240.7,232.4 L239.5,233.4 L238.3,234.4 L237,235.3 L235.8,236.2 L234.5,237 L233.1,237.8 L231.8,238.5 L230.4,239.2 L229,239.8 L227.6,240.4 L226.2,240.9 L224.7,241.3 L223.3,241.7 L221.8,242.1 L220.4,242.4 L218.9,242.6 L217.4,242.8 L215.9,242.9 L214.4,242.9 L213,242.9 L211.5,242.9 L210.1,242.8 L208.6,242.6 L207.2,242.4 L205.8,242.1 L204.4,241.8 L203,241.4 L201.6,241 L200.3,240.5 L199,240 L197.7,239.4 L196.5,238.8 L195.2,238.1 L194,237.4 L192.9,236.6 L191.8,235.8 L190.7,234.9 L189.7,234 L188.7,233.1 L187.7,232.2 L186.8,231.2 L185.9,230.1 L185.1,229.1 L184.3,228 L183.6,226.9 L182.9,225.8 L182.3,224.6 L181.7,223.4 L181.2,222.2 L180.8,221 L180.3,219.8 L180,218.6 L179.7,217.3 L179.4,216.1 L179.2,214.8 L179.1,213.6 L179,212.3 L179,211 L179,209.8 L179.1,208.5 L179.2,207.3 L179.4,206.1 L179.6,204.9 L179.9,203.7 L180.2,202.5 L180.6,201.3 L181,200.2 L181.5,199.1 L182.1,198 L182.6,196.9 L183.3,195.9 L183.9,194.9 L184.7,193.9 L185.4,192.9 L186.2,192 L187.1,191.2 L187.9,190.3 L188.8,189.6 L189.8,188.8 L190.8,188.1 L191.8,187.5 L192.8,186.8 L193.9,186.3 L194.9,185.8 L196,185.3 L197.2,184.9 L198.3,184.5 L199.5,184.2 L200.7,183.9 L201.8,183.7 L203,183.6 L204.2,183.5 L205.5,183.4 L206.7,183.4 L207.9,183.5 L209.1,183.6 L210.3,183.8 L211.5,184 L212.7,184.3 L213.9,184.6 L215.1,185 L216.2,185.4 L217.4,185.9 L218.5,186.4 L219.6,187 L220.7,187.7 L221.7,188.4 L222.8,189.1 L223.8,189.9 L224.8,190.7 L225.7,191.6 L226.6,192.5 L227.5,193.4 L228.3,194.4 L229.1,195.4 L229.8,196.5 L230.5,197.6 L231.2,198.8 L231.8,199.9 L232.4,201.1 L232.9,202.3 L233.4,203.6 L233.8,204.9 L234.2,206.2 L234.5,207.5 L234.8,208.8 L235,210.2 L235.2,211.5 L235.3,212.9 L235.4,214.3 L235.4,215.7 L235.3,217.1 L235.2,218.5 L235,219.9 L234.8,221.3 L234.5,222.7 L234.2,224.1 L233.8,225.5 L233.3,226.8 L232.8,228.2 L232.3,229.5 L231.7,230.8 L231,232.1 L230.3,233.4 L229.5,234.7 L228.7,235.9 L227.9,237.1 L226.9,238.3 L226,239.4 L225,240.6 L223.9,241.6 L222.8,242.7 L221.7,243.7 L220.5,244.6 L219.3,245.6 L218,246.4 L216.7,247.3 L215.4,248 L214.1,248.8 L212.7,249.5 L211.3,250.1 L209.8,250.7 L208.4,251.2 L206.9,251.7 L205.4,252.1 L203.9,252.5 L202.3,252.8 L200.8,253.1 L199.2,253.3 L197.6,253.4 L196.1,253.5 L194.5,253.5 L192.9,253.5 L191.3,253.4 L189.7,253.3 L188.2,253.1 L186.6,252.8 L185,252.5 L183.5,252.1 L181.9,251.7 L180.4,251.2 L178.9,250.7 L177.4,250.1 L176,249.4 L174.5,248.7 L173.1,248 L171.7,247.2 L170.4,246.3 L169.1,245.4 L167.8,244.5 L166.5,243.5 L165.3,242.4 L164.1,241.4 L163,240.2 L161.9,239.1 L160.8,237.9 L159.8,236.6 L158.9,235.4 L158,234.1 L157.1,232.7 L156.3,231.4 L155.5,230 L154.8,228.6 L154.2,227.1 L153.6,225.7 L153,224.2 L152.6,222.7 L152.1,221.2 L151.7,219.7 L151.4,218.2 L151.2,216.6 L151,215.1 L150.8,213.6 L150.7,212 L150.7,210.5 L150.7,208.9 L150.8,207.4 L150.9,205.9 L151.1,204.4 L151.4,202.9 L151.7,201.4 L152,199.9 L152.4,198.5 L152.9,197.1 L153.4,195.7 L154,194.3 L154.6,192.9 L155.3,191.6 L156,190.3 L156.7,189.1 L157.6,187.8 L158.4,186.7 L159.3,185.5 L160.2,184.4 L161.2,183.3 L162.2,182.3 L163.2,181.3 L164.3,180.4 L165.4,179.5 L166.5,178.7 L167.7,177.9 L168.9,177.1 L170.1,176.5 L171.3,175.8 L172.6,175.2 L173.8,174.7 L175.1,174.2 L176.4,173.8 L177.7,173.4 L179,173.1 L180.3,172.8 L181.7,172.6 L183,172.5 L184.3,172.4 L185.6,172.3 L187,172.4 L188.3,172.4 L189.6,172.6 L190.8,172.7 L192.1,173 L193.4,173.2 L194.6,173.6 L195.8,174 L197,174.4 L198.2,174.9 L199.4,175.4 L200.5,176 L201.6,176.6 L202.6,177.3 L203.6,178 L204.6,178.7 L205.6,179.5 L206.5,180.4 L207.4,181.2 L208.2,182.1 L209,183.1 L209.7,184 L210.4,185 L211.1,186.1 L211.7,187.1 L212.3,188.2 L212.8,189.3 L213.2,190.4 L213.6,191.5 L214,192.7 L214.3,193.9 L214.5,195 L214.7,196.2 L214.9,197.4 L215,198.6 L215,199.8 L215,201 L214.9,202.2 L214.8,203.4 L214.6,204.6 L214.4,205.8 L214.1,206.9 L213.7,208.1 L213.4,209.2 L212.9,210.4 L212.4,211.5 L211.9,212.5 L211.3,213.6 L210.6,214.6 L210,215.6 L209.2,216.6 L208.5,217.6 L207.6,218.5 L206.8,219.4 L205.9,220.2 L204.9,221 L204,221.8 L202.9,222.5 L201.9,223.2 L200.8,223.8 L199.7,224.4 L198.6,225 L197.4,225.5 L196.2,225.9 L195,226.3 L193.8,226.7 L192.5,227 L191.3,227.2 L190,227.4 L188.7,227.5 L187.4,227.6 L186.1,227.7 L184.7,227.6 L183.4,227.6 L182.1,227.4 L180.8,227.2 L179.4,227 L178.1,226.7 L176.8,226.3 L175.5,225.9 L174.2,225.5 L173,224.9 L171.7,224.4 L170.5,223.8 L169.3,223.1 L168.1,222.4 L166.9,221.6 L165.8,220.8 L164.6,219.9 L163.6,219 L162.5,218 L161.5,217 L160.5,215.9 L159.6,214.8 L158.7,213.7 L157.8,212.5 L157,211.3 L156.2,210.1 L155.5,208.8 L154.8,207.5 L154.2,206.2 L153.6,204.8 L153.1,203.4 L152.6,202 L152.2,200.5 L151.8,199.1 L151.5,197.6 L151.2,196.1 L151,194.6 L150.8,193.1 L150.7,191.6 L150.7,190 L150.7,188.5 L150.8,186.9 L150.9,185.4 L151.1,183.9 L151.3,182.3 L151.6,180.8 L152,179.3 L152.4,177.8 L152.9,176.3 L153.4,174.8 L154,173.3 L154.6,171.9 L155.3,170.5 L156.1,169.1 L156.9,167.7 L157.7,166.4 L158.6,165 L159.5,163.8 L160.5,162.5 L161.6,161.3 L162.6,160.1 L163.8,159 L164.9,157.9 L166.1,156.8 L167.4,155.8 L168.6,154.9 L169.9,154 L171.3,153.1 L172.7,152.3 L174.1,151.5 L175.5,150.8 L177,150.1 L178.4,149.5 L179.9,149 L181.4,148.5 L183,148 L184.5,147.6 L186.1,147.3 L187.7,147 L189.2,146.8 L190.8,146.6 L192.4,146.5 L194,146.5 L195.6,146.5 L197.1,146.6 L198.7,146.7 L200.3,146.9 L201.8,147.1 L203.4,147.4 L204.9,147.8 L206.4,148.2 L207.9,148.6 L209.4,149.1 L210.8,149.7 L212.2,150.3 L213.6,151 L215,151.7 L216.3,152.5 L217.6,153.3 L218.9,154.2 L220.1,155.1 L221.3,156 L222.5,157 L223.6,158 L224.6,159.1 L225.7,160.2 L226.6,161.3 L227.6,162.5 L228.4,163.7 L229.3,164.9 L230.1,166.2 L230.8,167.4 L231.5,168.7 L232.1,170.1 L232.7,171.4 L233.2,172.7 L233.7,174.1 L234.1,175.5 L234.4,176.9 L234.7,178.3 L235,179.7 L235.1,181.1 L235.3,182.5 L235.3,183.9 L235.4,185.3 L235.3,186.6 L235.2,188 L235.1,189.4 L234.9,190.8 L234.6,192.1 L234.3,193.4 L234,194.7 L233.5,196 L233.1,197.3 L232.6,198.5 L232,199.7 L231.4,200.9 L230.8,202 L230.1,203.1 L229.3,204.2 L228.6,205.3 L227.7,206.3 L226.9,207.2 L226,208.2 L225.1,209 L224.1,209.9 L223.1,210.7 L222.1,211.4 L221,212.1 L220,212.8 L218.9,213.4 L217.7,213.9 L216.6,214.4 L215.4,214.9 L214.3,215.3 L213.1,215.6 L211.9,215.9 L210.7,216.2 L209.5,216.3 L208.3,216.5 L207.1,216.6 L205.8,216.6 L204.6,216.5 L203.4,216.5 L202.2,216.3 L201,216.1 L199.9,215.9 L198.7,215.6 L197.5,215.2 L196.4,214.8 L195.3,214.4 L194.2,213.9 L193.1,213.3 L192.1,212.7 L191.1,212.1 L190.1,211.4 L189.1,210.7 L188.2,209.9 L187.3,209.1 L186.5,208.2 L185.7,207.4 L184.9,206.4 L184.2,205.5 L183.5,204.5 L182.8,203.4 L182.2,202.4 L181.7,201.3 L181.2,200.2 L180.7,199 L180.3,197.9 L180,196.7 L179.7,195.5 L179.4,194.3 L179.2,193.1 L179.1,191.8 L179,190.6 L179,189.4 L179,188.1 L179,186.8 L179.2,185.6 L179.4,184.3 L179.6,183.1 L179.9,181.8 L180.2,180.6 L180.6,179.4 L181.1,178.1 L181.6,176.9 L182.1,175.8 L182.7,174.6 L183.4,173.5 L184.1,172.3 L184.9,171.3 L185.7,170.2 L186.5,169.2 L187.4,168.1 L188.4,167.2 L189.3,166.2 L190.4,165.3 L191.4,164.5 L192.5,163.7 L193.7,162.9 L194.9,162.2 L196.1,161.5 L197.3,160.8 L198.6,160.2 L199.9,159.7 L201.2,159.2 L202.6,158.7 L203.9,158.3 L205.3,158 L206.7,157.7 L208.2,157.4 L209.6,157.3 L211,157.1 L212.5,157.1 L214,157 L215.5,157.1 L216.9,157.2 L218.4,157.3 L219.9,157.5 L221.4,157.8 L222.8,158.1 L224.3,158.5 L225.7,159 L227.2,159.4 L228.6,160 L230,160.6 L231.4,161.2 L232.7,162 L234,162.7 L235.4,163.5 L236.6,164.4 L237.9,165.3 L239.1,166.3 L240.3,167.3 L241.5,168.3 L242.6,169.4 L243.7,170.5 L244.7,171.7 L245.7,172.9 L246.6,174.2 L247.5,175.5 L248.4,176.8 L249.2,178.2 L250,179.6 L250.7,181 L251.3,182.4 L252,183.9 L252.5,185.4 L253,186.9 L253.5,188.4 L253.8,190 L254.2,191.5 L254.5,193.1 L254.7,194.7 L254.8,196.3 L254.9,197.9 L255,199.5 L255,201.1 L254.9,202.7" style="fill: none; fill-opacity: 0; stroke: rgb(255, 204, 51); stroke-width: 1; stroke-opacity: 1;"></path></g>

</svg>
